PathFileType	4	(X/Y/Z)	C:\Users\ebm\Documents\Erivelton\Erivelton2\wc3.trc
DataRate	CameraRate	NumFrames	NumMarkers	Units	OrigDataRate	OrigDataStartFrame	OrigNumFrames
150.00	150.00	      9	28	mm	150.00	623	      1245
Frame#	Time	IJ			PX			C7			T8			RAC			RAS			RPS			RAI			RPI			RLE			RME			RRS			RUS			R3M			R5M			LAC			LAS			LPS			LAI			LPI			LLE			LME			LRS			LUS			L3M			L5M			RW			LW			V_mid_elbow_r			V_mid_elbow_l			V_mid_wrist_r			V_mid_wrist_l			V_mid_trunk_low			V_mid_trunk_upp			
		X1	Y1	Z1	X2	Y2	Z2	X3	Y3	Z3	X4	Y4	Z4	X5	Y5	Z5	X6	Y6	Z6	X7	Y7	Z7	X8	Y8	Z8	X9	Y9	Z9	X10	Y10	Z10	X11	Y11	Z11	X12	Y12	Z12	X13	Y13	Z13	X14	Y14	Z14	X15	Y15	Z15	X16	Y16	Z16	X17	Y17	Z17	X18	Y18	Z18	X19	Y19	Z19	X20	Y20	Z20	X21	Y21	Z21	X22	Y22	Z22	X23	Y23	Z23	X24	Y24	Z24	X25	Y25	Z25	X26	Y26	Z26	X27	Y27	Z27	X28	Y28	Z28	

623	4.147	406.99338	1013.54382	-47.13790	398.73621	849.19482	-31.00871	287.07394	1128.43152	-51.91983	193.95967	989.48126	-39.12965	331.12891	1076.89246	154.75894	228.05719	940.27997	230.96973	197.57498	978.69244	221.65999	173.37494	893.10345	261.07657	137.83498	932.50525	251.53201	98.39397	875.72626	275.81781	76.58858	859.70447	197.68394	170.33913	621.70941	285.32034	213.72069	554.76654	296.01505	213.39590	634.15173	240.11290	246.03717	575.95514	285.27283	316.43219	1066.46094	-230.52171	207.80475	968.95972	-303.11380	176.45461	988.42987	-271.58765	154.30452	916.38373	-333.93997	116.67447	936.97058	-299.49393	87.35612	856.65857	-359.27646	56.17532	848.59204	-285.21265	174.13388	599.22681	-359.42737	216.50461	545.15198	-366.26288	212.97156	628.67120	-317.98987	251.55766	566.03223	-362.08740	300.94589	298.13354	276.93762	309.27151	299.87402	-352.73889	
624	4.153	414.50452	1013.45056	-47.12568	405.81516	849.09558	-30.82724	294.45245	1128.24609	-51.91575	201.22771	989.48535	-39.24467	338.72870	1076.39172	154.93176	236.84534	937.90741	231.26872	205.63649	976.15625	222.14334	182.40343	890.29889	261.41174	146.68704	929.10345	252.09682	107.88174	871.79175	276.24551	86.23983	855.61292	198.15794	184.34045	619.18182	286.26306	229.68195	553.69684	296.92361	225.71935	631.95697	239.93417	261.02310	576.11902	285.32770	323.85623	1066.14172	-230.73865	215.93173	967.01862	-303.51553	184.19179	986.24817	-272.25113	163.19733	913.72833	-334.43994	125.13199	934.05011	-300.27734	96.90102	853.35101	-359.82971	65.73770	844.95386	-285.92905	186.40956	596.55975	-360.02878	230.93680	544.18481	-367.10083	224.93839	626.98218	-318.07080	265.36856	566.10175	-363.27148	307.75635	298.05215	277.06873	316.07303	299.80637	-352.60825	
625	4.160	421.95721	1013.36127	-47.23632	412.78555	849.00891	-30.71209	301.24225	1128.62292	-51.85518	208.52228	989.49194	-39.35105	346.46701	1075.85315	155.13353	245.42618	935.68933	231.72699	213.95663	973.46246	222.79271	191.74748	887.31769	261.89310	155.54704	925.67889	252.76491	117.58248	867.74023	276.90903	96.08254	851.26587	198.87296	198.90175	616.50537	286.54413	245.98923	553.02081	297.76923	238.34447	629.87805	239.66833	276.35754	576.66138	285.54810	331.31985	1065.75598	-230.85883	224.11415	964.98322	-304.02237	192.03947	983.89496	-272.95380	172.19141	911.01495	-335.06052	133.78009	930.93744	-301.17987	106.84400	849.82959	-360.63040	75.62065	840.96204	-286.81644	200.21083	594.71680	-360.75589	246.21541	543.19379	-367.70657	237.49683	625.25201	-318.16586	280.36154	566.38580	-363.68686	314.60565	298.01282	277.09464	323.09601	299.73816	-352.48413	
626	4.167	429.24490	1013.18939	-47.26074	419.75128	848.82715	-30.68843	309.17319	1127.98206	-51.92221	215.75110	989.54889	-39.42265	354.22772	1075.25830	155.35028	254.38930	933.34540	232.09517	222.53812	970.71106	223.51326	201.40662	884.31317	262.43536	164.73563	922.19305	253.60764	127.62540	863.53333	277.74768	106.02168	846.78583	199.87431	213.38419	614.12506	287.15753	262.15579	552.32263	298.88647	251.28040	627.84589	239.32953	291.66162	577.41992	286.17990	338.67252	1065.36426	-230.96614	232.41267	962.93707	-304.57349	199.92642	981.44122	-273.72964	181.30759	908.41870	-335.80789	142.53094	927.65845	-302.15683	117.12404	846.16431	-361.63293	85.76400	836.64575	-287.89069	214.67740	592.85876	-361.59979	261.94635	542.03125	-368.41101	250.54205	623.57666	-318.20200	295.64255	566.02618	-362.95071	321.62503	297.88489	277.18997	329.92761	299.74664	-352.40378	
627	4.173	436.58035	1013.10840	-47.18739	426.61578	848.66608	-30.56045	316.06140	1128.27539	-51.82816	223.04184	989.64990	-39.51020	362.00098	1074.70728	155.57619	263.41687	931.10962	232.63530	230.82721	968.19867	224.32532	211.16582	881.31256	263.08698	173.98795	918.77356	254.60088	137.89716	859.48877	278.69662	116.13605	842.38379	201.06992	228.39882	611.95264	287.78592	277.91800	551.44061	300.27051	263.76764	625.46588	239.34259	306.52753	577.58008	286.85007	346.20493	1065.03418	-231.07764	240.87971	960.82745	-305.20798	207.93613	978.94891	-274.56995	191.83495	904.84808	-336.69373	151.48225	924.33832	-303.33380	127.63888	842.40845	-362.79507	96.27362	832.15698	-289.28333	229.55573	590.99701	-362.59305	277.89865	540.83826	-369.28854	264.01047	621.86884	-318.40115	311.23605	565.70209	-363.35068	328.53772	297.81055	277.38605	336.93967	299.63235	-352.26666	
628	4.180	443.72318	1012.95905	-47.18839	433.56177	848.57947	-30.48614	323.49683	1128.12610	-51.81021	230.31067	989.72284	-39.53806	369.91666	1074.02869	155.85437	272.98279	928.60657	232.85268	239.77405	965.48773	225.19124	221.17448	878.33759	263.79037	183.53625	915.39581	255.69090	148.32593	855.44727	279.79703	126.30151	838.05933	202.46898	242.78439	609.75116	288.53461	292.88983	550.41608	301.84021	276.60266	623.36322	239.61668	320.39932	577.30878	288.04630	353.70563	1064.75659	-231.19402	249.39609	958.74670	-305.90256	216.00366	976.35059	-275.45972	202.10756	901.73767	-337.64127	160.62102	920.92651	-304.58929	138.65300	838.64081	-364.15848	106.90446	827.60101	-290.90860	244.64612	589.18433	-363.59311	293.83331	539.76538	-370.38193	277.76379	620.06561	-318.73618	326.16238	566.52295	-363.94485	335.63620	297.67047	277.53247	343.95517	299.49716	-352.06686	
629	4.187	451.07080	1012.75421	-47.04185	440.25668	848.44531	-30.41115	330.98114	1128.02112	-51.76418	237.56425	989.87329	-39.53484	377.79489	1073.34338	156.13820	281.94955	926.59308	233.86441	248.76155	962.86371	226.17017	231.23984	875.42279	264.56079	193.22574	912.08893	256.84155	158.89812	851.65002	281.10486	136.62000	833.89075	203.94435	256.78836	607.54895	289.41782	307.38330	549.19580	303.41382	289.71927	621.16913	240.36263	334.41910	576.65405	289.27795	361.11407	1064.44531	-231.33180	258.21536	956.70239	-306.62195	224.29355	973.77325	-276.38083	212.58070	898.69550	-338.62820	169.88620	917.54541	-306.02817	149.82956	834.83179	-365.70752	117.91143	822.94226	-292.80634	259.73523	587.42926	-364.73920	309.73102	538.87451	-371.75070	291.52597	618.08972	-319.20352	341.67462	566.23529	-364.53619	342.67102	297.47705	277.70938	350.85754	299.42020	-351.88889	
630	4.193	458.32419	1012.52521	-46.87102	447.21558	848.21936	-30.29782	338.43915	1127.83813	-51.66255	244.87062	989.97009	-39.50634	385.71609	1072.61548	156.52405	291.83597	924.09387	234.09465	257.80563	960.40179	227.13992	241.52374	872.58344	265.39984	203.04485	908.93872	258.09430	169.52461	848.10571	282.48401	146.97614	830.00964	205.42970	269.37039	604.49762	290.53021	321.54254	547.66962	304.53656	302.74545	619.35669	241.05493	348.62823	575.69202	290.19650	368.72305	1064.03894	-231.35068	266.92691	954.73181	-307.47272	232.76172	971.17194	-277.39917	220.70677	896.52808	-340.04861	179.36804	914.15985	-307.50803	161.27362	831.05969	-367.36441	128.98080	818.44208	-294.87067	274.65759	585.68958	-365.91138	325.34042	538.01331	-373.21265	305.18060	615.92010	-319.71436	356.92847	565.75067	-365.26392	349.84546	297.26968	277.86322	357.86884	299.40244	-351.79050	
631	4.200	465.57208	1012.33136	-46.85448	453.59549	848.14862	-30.25966	345.90912	1127.66760	-51.54769	252.15977	990.10547	-39.41381	393.94147	1071.68652	156.88722	301.11392	922.21686	235.12483	266.95190	958.01208	228.29823	251.75664	869.95374	266.31091	212.83258	906.03241	259.44061	180.08510	844.78369	283.96085	157.19691	826.47284	206.94264	282.39661	602.36261	291.30136	335.38022	546.11212	305.40558	315.92538	618.03967	241.92451	361.66779	574.68488	291.53214	376.32507	1063.66516	-231.45366	276.54034	952.22308	-308.36273	241.32036	968.66028	-278.46686	230.86449	893.94135	-341.39905	188.98232	910.99121	-309.18173	172.84723	827.40442	-369.21591	140.11562	814.07983	-297.03207	289.32196	583.85150	-367.00955	340.36105	537.03711	-374.56213	318.15100	613.68030	-320.34177	371.68396	565.01416	-366.05701	357.00894	297.04803	277.98633	364.90033	299.25153	-351.75436	
